<?xml version="1.0" encoding="UTF-8"?>
<svg width="600px" height="585px" viewBox="0 0 600 585" version="1.1" xmlns="http://www.w3.org/2000/svg" xmlns:xlink="http://www.w3.org/1999/xlink">
    <title>watermark-shadow</title>
    <g id="watermark-shadow" stroke="none" stroke-width="1" fill="none" fill-rule="evenodd">
        <path d="M123.116,167.432 C124.988,167.432 126.578,167.012 127.886,166.172 C129.194,165.332 130.16,164.012 130.784,162.212 L130.784,162.212 L126.644,160.412 C126.38,161.252 125.966,161.93 125.402,162.446 C124.838,162.962 124.076,163.22 123.116,163.22 C122.036,163.22 121.22,162.872 120.668,162.176 C120.116,161.48 119.84,160.532 119.84,159.332 L119.84,159.332 L119.84,155.804 C119.84,154.604 120.116,153.65 120.668,152.942 C121.22,152.234 122.036,151.88 123.116,151.88 C124.052,151.88 124.784,152.132 125.312,152.636 C125.84,153.14 126.188,153.752 126.356,154.472 L126.356,154.472 L130.676,152.6 C130.124,151.04 129.206,149.828 127.922,148.964 C126.638,148.1 125.036,147.668 123.116,147.668 C121.7,147.668 120.44,147.896 119.336,148.352 C118.232,148.808 117.308,149.468 116.564,150.332 C115.82,151.196 115.256,152.234 114.872,153.446 C114.488,154.658 114.296,156.02 114.296,157.532 C114.296,159.044 114.488,160.412 114.872,161.636 C115.256,162.86 115.82,163.898 116.564,164.75 C117.308,165.602 118.232,166.262 119.336,166.73 C120.44,167.198 121.7,167.432 123.116,167.432 Z M140.432,167.432 C141.032,167.432 141.614,167.342 142.178,167.162 C142.742,166.982 143.246,166.73 143.69,166.406 C144.134,166.082 144.512,165.698 144.824,165.254 C145.136,164.81 145.364,164.336 145.508,163.832 L145.508,163.832 L145.688,163.832 L145.688,167 L151.016,167 L151.016,140.36 L145.688,140.36 L145.688,151.268 L145.508,151.268 C145.244,150.212 144.638,149.348 143.69,148.676 C142.742,148.004 141.656,147.668 140.432,147.668 C138.032,147.668 136.22,148.508 134.996,150.188 C133.772,151.868 133.16,154.316 133.16,157.532 C133.16,160.748 133.772,163.202 134.996,164.894 C136.22,166.586 138.032,167.432 140.432,167.432 Z M142.196,163.112 C141.188,163.112 140.354,162.758 139.694,162.05 C139.034,161.342 138.704,160.388 138.704,159.188 L138.704,159.188 L138.704,155.912 C138.704,154.712 139.034,153.758 139.694,153.05 C140.354,152.342 141.188,151.988 142.196,151.988 C143.204,151.988 144.038,152.234 144.698,152.726 C145.358,153.218 145.688,153.896 145.688,154.76 L145.688,154.76 L145.688,160.34 C145.688,161.204 145.358,161.882 144.698,162.374 C144.038,162.866 143.204,163.112 142.196,163.112 Z M160.592,167.432 C162.032,167.432 163.244,167.114 164.228,166.478 C165.212,165.842 165.848,164.912 166.136,163.688 L166.136,163.688 L166.352,163.688 C166.52,164.696 166.922,165.5 167.558,166.1 C168.194,166.7 168.992,167 169.952,167 L169.952,167 L172.904,167 L172.904,162.86 L171.14,162.86 L171.14,154.58 C171.14,152.324 170.468,150.608 169.124,149.432 C167.78,148.256 165.764,147.668 163.076,147.668 C161.084,147.668 159.506,147.986 158.342,148.622 C157.178,149.258 156.212,150.14 155.444,151.268 L155.444,151.268 L158.612,154.076 C159.02,153.5 159.536,152.984 160.16,152.528 C160.784,152.072 161.624,151.844 162.68,151.844 C163.808,151.844 164.612,152.114 165.092,152.654 C165.572,153.194 165.812,153.92 165.812,154.832 L165.812,154.832 L165.812,156.02 L162.824,156.02 C160.328,156.02 158.354,156.506 156.902,157.478 C155.45,158.45 154.724,159.932 154.724,161.924 C154.724,163.58 155.228,164.912 156.236,165.92 C157.244,166.928 158.696,167.432 160.592,167.432 Z M162.572,163.724 C161.78,163.724 161.168,163.562 160.736,163.238 C160.304,162.914 160.088,162.404 160.088,161.708 L160.088,161.708 L160.088,161.168 C160.088,159.752 161.132,159.044 163.22,159.044 L163.22,159.044 L165.812,159.044 L165.812,161.276 C165.812,162.14 165.494,162.764 164.858,163.148 C164.222,163.532 163.46,163.724 162.572,163.724 Z M192.92,173.84 L192.92,169.412 L175.064,169.412 L175.064,173.84 L192.92,173.84 Z" id="cda_" fill="#000000" fill-rule="nonzero"></path>
        <path d="M423.116,167.432 C424.988,167.432 426.578,167.012 427.886,166.172 C429.194,165.332 430.16,164.012 430.784,162.212 L430.784,162.212 L426.644,160.412 C426.38,161.252 425.966,161.93 425.402,162.446 C424.838,162.962 424.076,163.22 423.116,163.22 C422.036,163.22 421.22,162.872 420.668,162.176 C420.116,161.48 419.84,160.532 419.84,159.332 L419.84,159.332 L419.84,155.804 C419.84,154.604 420.116,153.65 420.668,152.942 C421.22,152.234 422.036,151.88 423.116,151.88 C424.052,151.88 424.784,152.132 425.312,152.636 C425.84,153.14 426.188,153.752 426.356,154.472 L426.356,154.472 L430.676,152.6 C430.124,151.04 429.206,149.828 427.922,148.964 C426.638,148.1 425.036,147.668 423.116,147.668 C421.7,147.668 420.44,147.896 419.336,148.352 C418.232,148.808 417.308,149.468 416.564,150.332 C415.82,151.196 415.256,152.234 414.872,153.446 C414.488,154.658 414.296,156.02 414.296,157.532 C414.296,159.044 414.488,160.412 414.872,161.636 C415.256,162.86 415.82,163.898 416.564,164.75 C417.308,165.602 418.232,166.262 419.336,166.73 C420.44,167.198 421.7,167.432 423.116,167.432 Z M440.432,167.432 C441.032,167.432 441.614,167.342 442.178,167.162 C442.742,166.982 443.246,166.73 443.69,166.406 C444.134,166.082 444.512,165.698 444.824,165.254 C445.136,164.81 445.364,164.336 445.508,163.832 L445.508,163.832 L445.688,163.832 L445.688,167 L451.016,167 L451.016,140.36 L445.688,140.36 L445.688,151.268 L445.508,151.268 C445.244,150.212 444.638,149.348 443.69,148.676 C442.742,148.004 441.656,147.668 440.432,147.668 C438.032,147.668 436.22,148.508 434.996,150.188 C433.772,151.868 433.16,154.316 433.16,157.532 C433.16,160.748 433.772,163.202 434.996,164.894 C436.22,166.586 438.032,167.432 440.432,167.432 Z M442.196,163.112 C441.188,163.112 440.354,162.758 439.694,162.05 C439.034,161.342 438.704,160.388 438.704,159.188 L438.704,159.188 L438.704,155.912 C438.704,154.712 439.034,153.758 439.694,153.05 C440.354,152.342 441.188,151.988 442.196,151.988 C443.204,151.988 444.038,152.234 444.698,152.726 C445.358,153.218 445.688,153.896 445.688,154.76 L445.688,154.76 L445.688,160.34 C445.688,161.204 445.358,161.882 444.698,162.374 C444.038,162.866 443.204,163.112 442.196,163.112 Z M460.592,167.432 C462.032,167.432 463.244,167.114 464.228,166.478 C465.212,165.842 465.848,164.912 466.136,163.688 L466.136,163.688 L466.352,163.688 C466.52,164.696 466.922,165.5 467.558,166.1 C468.194,166.7 468.992,167 469.952,167 L469.952,167 L472.904,167 L472.904,162.86 L471.14,162.86 L471.14,154.58 C471.14,152.324 470.468,150.608 469.124,149.432 C467.78,148.256 465.764,147.668 463.076,147.668 C461.084,147.668 459.506,147.986 458.342,148.622 C457.178,149.258 456.212,150.14 455.444,151.268 L455.444,151.268 L458.612,154.076 C459.02,153.5 459.536,152.984 460.16,152.528 C460.784,152.072 461.624,151.844 462.68,151.844 C463.808,151.844 464.612,152.114 465.092,152.654 C465.572,153.194 465.812,153.92 465.812,154.832 L465.812,154.832 L465.812,156.02 L462.824,156.02 C460.328,156.02 458.354,156.506 456.902,157.478 C455.45,158.45 454.724,159.932 454.724,161.924 C454.724,163.58 455.228,164.912 456.236,165.92 C457.244,166.928 458.696,167.432 460.592,167.432 Z M462.572,163.724 C461.78,163.724 461.168,163.562 460.736,163.238 C460.304,162.914 460.088,162.404 460.088,161.708 L460.088,161.708 L460.088,161.168 C460.088,159.752 461.132,159.044 463.22,159.044 L463.22,159.044 L465.812,159.044 L465.812,161.276 C465.812,162.14 465.494,162.764 464.858,163.148 C464.222,163.532 463.46,163.724 462.572,163.724 Z M492.92,173.84 L492.92,169.412 L475.064,169.412 L475.064,173.84 L492.92,173.84 Z" id="cda_" fill="#000000" fill-rule="nonzero"></path>
        <path d="M123.116,467.432 C124.988,467.432 126.578,467.012 127.886,466.172 C129.194,465.332 130.16,464.012 130.784,462.212 L130.784,462.212 L126.644,460.412 C126.38,461.252 125.966,461.93 125.402,462.446 C124.838,462.962 124.076,463.22 123.116,463.22 C122.036,463.22 121.22,462.872 120.668,462.176 C120.116,461.48 119.84,460.532 119.84,459.332 L119.84,459.332 L119.84,455.804 C119.84,454.604 120.116,453.65 120.668,452.942 C121.22,452.234 122.036,451.88 123.116,451.88 C124.052,451.88 124.784,452.132 125.312,452.636 C125.84,453.14 126.188,453.752 126.356,454.472 L126.356,454.472 L130.676,452.6 C130.124,451.04 129.206,449.828 127.922,448.964 C126.638,448.1 125.036,447.668 123.116,447.668 C121.7,447.668 120.44,447.896 119.336,448.352 C118.232,448.808 117.308,449.468 116.564,450.332 C115.82,451.196 115.256,452.234 114.872,453.446 C114.488,454.658 114.296,456.02 114.296,457.532 C114.296,459.044 114.488,460.412 114.872,461.636 C115.256,462.86 115.82,463.898 116.564,464.75 C117.308,465.602 118.232,466.262 119.336,466.73 C120.44,467.198 121.7,467.432 123.116,467.432 Z M140.432,467.432 C141.032,467.432 141.614,467.342 142.178,467.162 C142.742,466.982 143.246,466.73 143.69,466.406 C144.134,466.082 144.512,465.698 144.824,465.254 C145.136,464.81 145.364,464.336 145.508,463.832 L145.508,463.832 L145.688,463.832 L145.688,467 L151.016,467 L151.016,440.36 L145.688,440.36 L145.688,451.268 L145.508,451.268 C145.244,450.212 144.638,449.348 143.69,448.676 C142.742,448.004 141.656,447.668 140.432,447.668 C138.032,447.668 136.22,448.508 134.996,450.188 C133.772,451.868 133.16,454.316 133.16,457.532 C133.16,460.748 133.772,463.202 134.996,464.894 C136.22,466.586 138.032,467.432 140.432,467.432 Z M142.196,463.112 C141.188,463.112 140.354,462.758 139.694,462.05 C139.034,461.342 138.704,460.388 138.704,459.188 L138.704,459.188 L138.704,455.912 C138.704,454.712 139.034,453.758 139.694,453.05 C140.354,452.342 141.188,451.988 142.196,451.988 C143.204,451.988 144.038,452.234 144.698,452.726 C145.358,453.218 145.688,453.896 145.688,454.76 L145.688,454.76 L145.688,460.34 C145.688,461.204 145.358,461.882 144.698,462.374 C144.038,462.866 143.204,463.112 142.196,463.112 Z M160.592,467.432 C162.032,467.432 163.244,467.114 164.228,466.478 C165.212,465.842 165.848,464.912 166.136,463.688 L166.136,463.688 L166.352,463.688 C166.52,464.696 166.922,465.5 167.558,466.1 C168.194,466.7 168.992,467 169.952,467 L169.952,467 L172.904,467 L172.904,462.86 L171.14,462.86 L171.14,454.58 C171.14,452.324 170.468,450.608 169.124,449.432 C167.78,448.256 165.764,447.668 163.076,447.668 C161.084,447.668 159.506,447.986 158.342,448.622 C157.178,449.258 156.212,450.14 155.444,451.268 L155.444,451.268 L158.612,454.076 C159.02,453.5 159.536,452.984 160.16,452.528 C160.784,452.072 161.624,451.844 162.68,451.844 C163.808,451.844 164.612,452.114 165.092,452.654 C165.572,453.194 165.812,453.92 165.812,454.832 L165.812,454.832 L165.812,456.02 L162.824,456.02 C160.328,456.02 158.354,456.506 156.902,457.478 C155.45,458.45 154.724,459.932 154.724,461.924 C154.724,463.58 155.228,464.912 156.236,465.92 C157.244,466.928 158.696,467.432 160.592,467.432 Z M162.572,463.724 C161.78,463.724 161.168,463.562 160.736,463.238 C160.304,462.914 160.088,462.404 160.088,461.708 L160.088,461.708 L160.088,461.168 C160.088,459.752 161.132,459.044 163.22,459.044 L163.22,459.044 L165.812,459.044 L165.812,461.276 C165.812,462.14 165.494,462.764 164.858,463.148 C164.222,463.532 163.46,463.724 162.572,463.724 Z M192.92,473.84 L192.92,469.412 L175.064,469.412 L175.064,473.84 L192.92,473.84 Z" id="cda_" fill="#000000" fill-rule="nonzero"></path>
        <path d="M423.116,467.432 C424.988,467.432 426.578,467.012 427.886,466.172 C429.194,465.332 430.16,464.012 430.784,462.212 L430.784,462.212 L426.644,460.412 C426.38,461.252 425.966,461.93 425.402,462.446 C424.838,462.962 424.076,463.22 423.116,463.22 C422.036,463.22 421.22,462.872 420.668,462.176 C420.116,461.48 419.84,460.532 419.84,459.332 L419.84,459.332 L419.84,455.804 C419.84,454.604 420.116,453.65 420.668,452.942 C421.22,452.234 422.036,451.88 423.116,451.88 C424.052,451.88 424.784,452.132 425.312,452.636 C425.84,453.14 426.188,453.752 426.356,454.472 L426.356,454.472 L430.676,452.6 C430.124,451.04 429.206,449.828 427.922,448.964 C426.638,448.1 425.036,447.668 423.116,447.668 C421.7,447.668 420.44,447.896 419.336,448.352 C418.232,448.808 417.308,449.468 416.564,450.332 C415.82,451.196 415.256,452.234 414.872,453.446 C414.488,454.658 414.296,456.02 414.296,457.532 C414.296,459.044 414.488,460.412 414.872,461.636 C415.256,462.86 415.82,463.898 416.564,464.75 C417.308,465.602 418.232,466.262 419.336,466.73 C420.44,467.198 421.7,467.432 423.116,467.432 Z M440.432,467.432 C441.032,467.432 441.614,467.342 442.178,467.162 C442.742,466.982 443.246,466.73 443.69,466.406 C444.134,466.082 444.512,465.698 444.824,465.254 C445.136,464.81 445.364,464.336 445.508,463.832 L445.508,463.832 L445.688,463.832 L445.688,467 L451.016,467 L451.016,440.36 L445.688,440.36 L445.688,451.268 L445.508,451.268 C445.244,450.212 444.638,449.348 443.69,448.676 C442.742,448.004 441.656,447.668 440.432,447.668 C438.032,447.668 436.22,448.508 434.996,450.188 C433.772,451.868 433.16,454.316 433.16,457.532 C433.16,460.748 433.772,463.202 434.996,464.894 C436.22,466.586 438.032,467.432 440.432,467.432 Z M442.196,463.112 C441.188,463.112 440.354,462.758 439.694,462.05 C439.034,461.342 438.704,460.388 438.704,459.188 L438.704,459.188 L438.704,455.912 C438.704,454.712 439.034,453.758 439.694,453.05 C440.354,452.342 441.188,451.988 442.196,451.988 C443.204,451.988 444.038,452.234 444.698,452.726 C445.358,453.218 445.688,453.896 445.688,454.76 L445.688,454.76 L445.688,460.34 C445.688,461.204 445.358,461.882 444.698,462.374 C444.038,462.866 443.204,463.112 442.196,463.112 Z M460.592,467.432 C462.032,467.432 463.244,467.114 464.228,466.478 C465.212,465.842 465.848,464.912 466.136,463.688 L466.136,463.688 L466.352,463.688 C466.52,464.696 466.922,465.5 467.558,466.1 C468.194,466.7 468.992,467 469.952,467 L469.952,467 L472.904,467 L472.904,462.86 L471.14,462.86 L471.14,454.58 C471.14,452.324 470.468,450.608 469.124,449.432 C467.78,448.256 465.764,447.668 463.076,447.668 C461.084,447.668 459.506,447.986 458.342,448.622 C457.178,449.258 456.212,450.14 455.444,451.268 L455.444,451.268 L458.612,454.076 C459.02,453.5 459.536,452.984 460.16,452.528 C460.784,452.072 461.624,451.844 462.68,451.844 C463.808,451.844 464.612,452.114 465.092,452.654 C465.572,453.194 465.812,453.92 465.812,454.832 L465.812,454.832 L465.812,456.02 L462.824,456.02 C460.328,456.02 458.354,456.506 456.902,457.478 C455.45,458.45 454.724,459.932 454.724,461.924 C454.724,463.58 455.228,464.912 456.236,465.92 C457.244,466.928 458.696,467.432 460.592,467.432 Z M462.572,463.724 C461.78,463.724 461.168,463.562 460.736,463.238 C460.304,462.914 460.088,462.404 460.088,461.708 L460.088,461.708 L460.088,461.168 C460.088,459.752 461.132,459.044 463.22,459.044 L463.22,459.044 L465.812,459.044 L465.812,461.276 C465.812,462.14 465.494,462.764 464.858,463.148 C464.222,463.532 463.46,463.724 462.572,463.724 Z M492.92,473.84 L492.92,469.412 L475.064,469.412 L475.064,473.84 L492.92,473.84 Z" id="cda_" fill="#000000" fill-rule="nonzero"></path>
        <path d="M120.116,164.432 C121.988,164.432 123.578,164.012 124.886,163.172 C126.194,162.332 127.16,161.012 127.784,159.212 L127.784,159.212 L123.644,157.412 C123.38,158.252 122.966,158.93 122.402,159.446 C121.838,159.962 121.076,160.22 120.116,160.22 C119.036,160.22 118.22,159.872 117.668,159.176 C117.116,158.48 116.84,157.532 116.84,156.332 L116.84,156.332 L116.84,152.804 C116.84,151.604 117.116,150.65 117.668,149.942 C118.22,149.234 119.036,148.88 120.116,148.88 C121.052,148.88 121.784,149.132 122.312,149.636 C122.84,150.14 123.188,150.752 123.356,151.472 L123.356,151.472 L127.676,149.6 C127.124,148.04 126.206,146.828 124.922,145.964 C123.638,145.1 122.036,144.668 120.116,144.668 C118.7,144.668 117.44,144.896 116.336,145.352 C115.232,145.808 114.308,146.468 113.564,147.332 C112.82,148.196 112.256,149.234 111.872,150.446 C111.488,151.658 111.296,153.02 111.296,154.532 C111.296,156.044 111.488,157.412 111.872,158.636 C112.256,159.86 112.82,160.898 113.564,161.75 C114.308,162.602 115.232,163.262 116.336,163.73 C117.44,164.198 118.7,164.432 120.116,164.432 Z M137.432,164.432 C138.032,164.432 138.614,164.342 139.178,164.162 C139.742,163.982 140.246,163.73 140.69,163.406 C141.134,163.082 141.512,162.698 141.824,162.254 C142.136,161.81 142.364,161.336 142.508,160.832 L142.508,160.832 L142.688,160.832 L142.688,164 L148.016,164 L148.016,137.36 L142.688,137.36 L142.688,148.268 L142.508,148.268 C142.244,147.212 141.638,146.348 140.69,145.676 C139.742,145.004 138.656,144.668 137.432,144.668 C135.032,144.668 133.22,145.508 131.996,147.188 C130.772,148.868 130.16,151.316 130.16,154.532 C130.16,157.748 130.772,160.202 131.996,161.894 C133.22,163.586 135.032,164.432 137.432,164.432 Z M139.196,160.112 C138.188,160.112 137.354,159.758 136.694,159.05 C136.034,158.342 135.704,157.388 135.704,156.188 L135.704,156.188 L135.704,152.912 C135.704,151.712 136.034,150.758 136.694,150.05 C137.354,149.342 138.188,148.988 139.196,148.988 C140.204,148.988 141.038,149.234 141.698,149.726 C142.358,150.218 142.688,150.896 142.688,151.76 L142.688,151.76 L142.688,157.34 C142.688,158.204 142.358,158.882 141.698,159.374 C141.038,159.866 140.204,160.112 139.196,160.112 Z M157.592,164.432 C159.032,164.432 160.244,164.114 161.228,163.478 C162.212,162.842 162.848,161.912 163.136,160.688 L163.136,160.688 L163.352,160.688 C163.52,161.696 163.922,162.5 164.558,163.1 C165.194,163.7 165.992,164 166.952,164 L166.952,164 L169.904,164 L169.904,159.86 L168.14,159.86 L168.14,151.58 C168.14,149.324 167.468,147.608 166.124,146.432 C164.78,145.256 162.764,144.668 160.076,144.668 C158.084,144.668 156.506,144.986 155.342,145.622 C154.178,146.258 153.212,147.14 152.444,148.268 L152.444,148.268 L155.612,151.076 C156.02,150.5 156.536,149.984 157.16,149.528 C157.784,149.072 158.624,148.844 159.68,148.844 C160.808,148.844 161.612,149.114 162.092,149.654 C162.572,150.194 162.812,150.92 162.812,151.832 L162.812,151.832 L162.812,153.02 L159.824,153.02 C157.328,153.02 155.354,153.506 153.902,154.478 C152.45,155.45 151.724,156.932 151.724,158.924 C151.724,160.58 152.228,161.912 153.236,162.92 C154.244,163.928 155.696,164.432 157.592,164.432 Z M159.572,160.724 C158.78,160.724 158.168,160.562 157.736,160.238 C157.304,159.914 157.088,159.404 157.088,158.708 L157.088,158.708 L157.088,158.168 C157.088,156.752 158.132,156.044 160.22,156.044 L160.22,156.044 L162.812,156.044 L162.812,158.276 C162.812,159.14 162.494,159.764 161.858,160.148 C161.222,160.532 160.46,160.724 159.572,160.724 Z M189.92,170.84 L189.92,166.412 L172.064,166.412 L172.064,170.84 L189.92,170.84 Z" id="cda_" fill="#FFFFFF" fill-rule="nonzero"></path>
        <path d="M420.116,164.432 C421.988,164.432 423.578,164.012 424.886,163.172 C426.194,162.332 427.16,161.012 427.784,159.212 L427.784,159.212 L423.644,157.412 C423.38,158.252 422.966,158.93 422.402,159.446 C421.838,159.962 421.076,160.22 420.116,160.22 C419.036,160.22 418.22,159.872 417.668,159.176 C417.116,158.48 416.84,157.532 416.84,156.332 L416.84,156.332 L416.84,152.804 C416.84,151.604 417.116,150.65 417.668,149.942 C418.22,149.234 419.036,148.88 420.116,148.88 C421.052,148.88 421.784,149.132 422.312,149.636 C422.84,150.14 423.188,150.752 423.356,151.472 L423.356,151.472 L427.676,149.6 C427.124,148.04 426.206,146.828 424.922,145.964 C423.638,145.1 422.036,144.668 420.116,144.668 C418.7,144.668 417.44,144.896 416.336,145.352 C415.232,145.808 414.308,146.468 413.564,147.332 C412.82,148.196 412.256,149.234 411.872,150.446 C411.488,151.658 411.296,153.02 411.296,154.532 C411.296,156.044 411.488,157.412 411.872,158.636 C412.256,159.86 412.82,160.898 413.564,161.75 C414.308,162.602 415.232,163.262 416.336,163.73 C417.44,164.198 418.7,164.432 420.116,164.432 Z M437.432,164.432 C438.032,164.432 438.614,164.342 439.178,164.162 C439.742,163.982 440.246,163.73 440.69,163.406 C441.134,163.082 441.512,162.698 441.824,162.254 C442.136,161.81 442.364,161.336 442.508,160.832 L442.508,160.832 L442.688,160.832 L442.688,164 L448.016,164 L448.016,137.36 L442.688,137.36 L442.688,148.268 L442.508,148.268 C442.244,147.212 441.638,146.348 440.69,145.676 C439.742,145.004 438.656,144.668 437.432,144.668 C435.032,144.668 433.22,145.508 431.996,147.188 C430.772,148.868 430.16,151.316 430.16,154.532 C430.16,157.748 430.772,160.202 431.996,161.894 C433.22,163.586 435.032,164.432 437.432,164.432 Z M439.196,160.112 C438.188,160.112 437.354,159.758 436.694,159.05 C436.034,158.342 435.704,157.388 435.704,156.188 L435.704,156.188 L435.704,152.912 C435.704,151.712 436.034,150.758 436.694,150.05 C437.354,149.342 438.188,148.988 439.196,148.988 C440.204,148.988 441.038,149.234 441.698,149.726 C442.358,150.218 442.688,150.896 442.688,151.76 L442.688,151.76 L442.688,157.34 C442.688,158.204 442.358,158.882 441.698,159.374 C441.038,159.866 440.204,160.112 439.196,160.112 Z M457.592,164.432 C459.032,164.432 460.244,164.114 461.228,163.478 C462.212,162.842 462.848,161.912 463.136,160.688 L463.136,160.688 L463.352,160.688 C463.52,161.696 463.922,162.5 464.558,163.1 C465.194,163.7 465.992,164 466.952,164 L466.952,164 L469.904,164 L469.904,159.86 L468.14,159.86 L468.14,151.58 C468.14,149.324 467.468,147.608 466.124,146.432 C464.78,145.256 462.764,144.668 460.076,144.668 C458.084,144.668 456.506,144.986 455.342,145.622 C454.178,146.258 453.212,147.14 452.444,148.268 L452.444,148.268 L455.612,151.076 C456.02,150.5 456.536,149.984 457.16,149.528 C457.784,149.072 458.624,148.844 459.68,148.844 C460.808,148.844 461.612,149.114 462.092,149.654 C462.572,150.194 462.812,150.92 462.812,151.832 L462.812,151.832 L462.812,153.02 L459.824,153.02 C457.328,153.02 455.354,153.506 453.902,154.478 C452.45,155.45 451.724,156.932 451.724,158.924 C451.724,160.58 452.228,161.912 453.236,162.92 C454.244,163.928 455.696,164.432 457.592,164.432 Z M459.572,160.724 C458.78,160.724 458.168,160.562 457.736,160.238 C457.304,159.914 457.088,159.404 457.088,158.708 L457.088,158.708 L457.088,158.168 C457.088,156.752 458.132,156.044 460.22,156.044 L460.22,156.044 L462.812,156.044 L462.812,158.276 C462.812,159.14 462.494,159.764 461.858,160.148 C461.222,160.532 460.46,160.724 459.572,160.724 Z M489.92,170.84 L489.92,166.412 L472.064,166.412 L472.064,170.84 L489.92,170.84 Z" id="cda_" fill="#FFFFFF" fill-rule="nonzero"></path>
        <path d="M120.116,464.432 C121.988,464.432 123.578,464.012 124.886,463.172 C126.194,462.332 127.16,461.012 127.784,459.212 L127.784,459.212 L123.644,457.412 C123.38,458.252 122.966,458.93 122.402,459.446 C121.838,459.962 121.076,460.22 120.116,460.22 C119.036,460.22 118.22,459.872 117.668,459.176 C117.116,458.48 116.84,457.532 116.84,456.332 L116.84,456.332 L116.84,452.804 C116.84,451.604 117.116,450.65 117.668,449.942 C118.22,449.234 119.036,448.88 120.116,448.88 C121.052,448.88 121.784,449.132 122.312,449.636 C122.84,450.14 123.188,450.752 123.356,451.472 L123.356,451.472 L127.676,449.6 C127.124,448.04 126.206,446.828 124.922,445.964 C123.638,445.1 122.036,444.668 120.116,444.668 C118.7,444.668 117.44,444.896 116.336,445.352 C115.232,445.808 114.308,446.468 113.564,447.332 C112.82,448.196 112.256,449.234 111.872,450.446 C111.488,451.658 111.296,453.02 111.296,454.532 C111.296,456.044 111.488,457.412 111.872,458.636 C112.256,459.86 112.82,460.898 113.564,461.75 C114.308,462.602 115.232,463.262 116.336,463.73 C117.44,464.198 118.7,464.432 120.116,464.432 Z M137.432,464.432 C138.032,464.432 138.614,464.342 139.178,464.162 C139.742,463.982 140.246,463.73 140.69,463.406 C141.134,463.082 141.512,462.698 141.824,462.254 C142.136,461.81 142.364,461.336 142.508,460.832 L142.508,460.832 L142.688,460.832 L142.688,464 L148.016,464 L148.016,437.36 L142.688,437.36 L142.688,448.268 L142.508,448.268 C142.244,447.212 141.638,446.348 140.69,445.676 C139.742,445.004 138.656,444.668 137.432,444.668 C135.032,444.668 133.22,445.508 131.996,447.188 C130.772,448.868 130.16,451.316 130.16,454.532 C130.16,457.748 130.772,460.202 131.996,461.894 C133.22,463.586 135.032,464.432 137.432,464.432 Z M139.196,460.112 C138.188,460.112 137.354,459.758 136.694,459.05 C136.034,458.342 135.704,457.388 135.704,456.188 L135.704,456.188 L135.704,452.912 C135.704,451.712 136.034,450.758 136.694,450.05 C137.354,449.342 138.188,448.988 139.196,448.988 C140.204,448.988 141.038,449.234 141.698,449.726 C142.358,450.218 142.688,450.896 142.688,451.76 L142.688,451.76 L142.688,457.34 C142.688,458.204 142.358,458.882 141.698,459.374 C141.038,459.866 140.204,460.112 139.196,460.112 Z M157.592,464.432 C159.032,464.432 160.244,464.114 161.228,463.478 C162.212,462.842 162.848,461.912 163.136,460.688 L163.136,460.688 L163.352,460.688 C163.52,461.696 163.922,462.5 164.558,463.1 C165.194,463.7 165.992,464 166.952,464 L166.952,464 L169.904,464 L169.904,459.86 L168.14,459.86 L168.14,451.58 C168.14,449.324 167.468,447.608 166.124,446.432 C164.78,445.256 162.764,444.668 160.076,444.668 C158.084,444.668 156.506,444.986 155.342,445.622 C154.178,446.258 153.212,447.14 152.444,448.268 L152.444,448.268 L155.612,451.076 C156.02,450.5 156.536,449.984 157.16,449.528 C157.784,449.072 158.624,448.844 159.68,448.844 C160.808,448.844 161.612,449.114 162.092,449.654 C162.572,450.194 162.812,450.92 162.812,451.832 L162.812,451.832 L162.812,453.02 L159.824,453.02 C157.328,453.02 155.354,453.506 153.902,454.478 C152.45,455.45 151.724,456.932 151.724,458.924 C151.724,460.58 152.228,461.912 153.236,462.92 C154.244,463.928 155.696,464.432 157.592,464.432 Z M159.572,460.724 C158.78,460.724 158.168,460.562 157.736,460.238 C157.304,459.914 157.088,459.404 157.088,458.708 L157.088,458.708 L157.088,458.168 C157.088,456.752 158.132,456.044 160.22,456.044 L160.22,456.044 L162.812,456.044 L162.812,458.276 C162.812,459.14 162.494,459.764 161.858,460.148 C161.222,460.532 160.46,460.724 159.572,460.724 Z M189.92,470.84 L189.92,466.412 L172.064,466.412 L172.064,470.84 L189.92,470.84 Z" id="cda_" fill="#FFFFFF" fill-rule="nonzero"></path>
        <path d="M420.116,464.432 C421.988,464.432 423.578,464.012 424.886,463.172 C426.194,462.332 427.16,461.012 427.784,459.212 L427.784,459.212 L423.644,457.412 C423.38,458.252 422.966,458.93 422.402,459.446 C421.838,459.962 421.076,460.22 420.116,460.22 C419.036,460.22 418.22,459.872 417.668,459.176 C417.116,458.48 416.84,457.532 416.84,456.332 L416.84,456.332 L416.84,452.804 C416.84,451.604 417.116,450.65 417.668,449.942 C418.22,449.234 419.036,448.88 420.116,448.88 C421.052,448.88 421.784,449.132 422.312,449.636 C422.84,450.14 423.188,450.752 423.356,451.472 L423.356,451.472 L427.676,449.6 C427.124,448.04 426.206,446.828 424.922,445.964 C423.638,445.1 422.036,444.668 420.116,444.668 C418.7,444.668 417.44,444.896 416.336,445.352 C415.232,445.808 414.308,446.468 413.564,447.332 C412.82,448.196 412.256,449.234 411.872,450.446 C411.488,451.658 411.296,453.02 411.296,454.532 C411.296,456.044 411.488,457.412 411.872,458.636 C412.256,459.86 412.82,460.898 413.564,461.75 C414.308,462.602 415.232,463.262 416.336,463.73 C417.44,464.198 418.7,464.432 420.116,464.432 Z M437.432,464.432 C438.032,464.432 438.614,464.342 439.178,464.162 C439.742,463.982 440.246,463.73 440.69,463.406 C441.134,463.082 441.512,462.698 441.824,462.254 C442.136,461.81 442.364,461.336 442.508,460.832 L442.508,460.832 L442.688,460.832 L442.688,464 L448.016,464 L448.016,437.36 L442.688,437.36 L442.688,448.268 L442.508,448.268 C442.244,447.212 441.638,446.348 440.69,445.676 C439.742,445.004 438.656,444.668 437.432,444.668 C435.032,444.668 433.22,445.508 431.996,447.188 C430.772,448.868 430.16,451.316 430.16,454.532 C430.16,457.748 430.772,460.202 431.996,461.894 C433.22,463.586 435.032,464.432 437.432,464.432 Z M439.196,460.112 C438.188,460.112 437.354,459.758 436.694,459.05 C436.034,458.342 435.704,457.388 435.704,456.188 L435.704,456.188 L435.704,452.912 C435.704,451.712 436.034,450.758 436.694,450.05 C437.354,449.342 438.188,448.988 439.196,448.988 C440.204,448.988 441.038,449.234 441.698,449.726 C442.358,450.218 442.688,450.896 442.688,451.76 L442.688,451.76 L442.688,457.34 C442.688,458.204 442.358,458.882 441.698,459.374 C441.038,459.866 440.204,460.112 439.196,460.112 Z M457.592,464.432 C459.032,464.432 460.244,464.114 461.228,463.478 C462.212,462.842 462.848,461.912 463.136,460.688 L463.136,460.688 L463.352,460.688 C463.52,461.696 463.922,462.5 464.558,463.1 C465.194,463.7 465.992,464 466.952,464 L466.952,464 L469.904,464 L469.904,459.86 L468.14,459.86 L468.14,451.58 C468.14,449.324 467.468,447.608 466.124,446.432 C464.78,445.256 462.764,444.668 460.076,444.668 C458.084,444.668 456.506,444.986 455.342,445.622 C454.178,446.258 453.212,447.14 452.444,448.268 L452.444,448.268 L455.612,451.076 C456.02,450.5 456.536,449.984 457.16,449.528 C457.784,449.072 458.624,448.844 459.68,448.844 C460.808,448.844 461.612,449.114 462.092,449.654 C462.572,450.194 462.812,450.92 462.812,451.832 L462.812,451.832 L462.812,453.02 L459.824,453.02 C457.328,453.02 455.354,453.506 453.902,454.478 C452.45,455.45 451.724,456.932 451.724,458.924 C451.724,460.58 452.228,461.912 453.236,462.92 C454.244,463.928 455.696,464.432 457.592,464.432 Z M459.572,460.724 C458.78,460.724 458.168,460.562 457.736,460.238 C457.304,459.914 457.088,459.404 457.088,458.708 L457.088,458.708 L457.088,458.168 C457.088,456.752 458.132,456.044 460.22,456.044 L460.22,456.044 L462.812,456.044 L462.812,458.276 C462.812,459.14 462.494,459.764 461.858,460.148 C461.222,460.532 460.46,460.724 459.572,460.724 Z M489.92,470.84 L489.92,466.412 L472.064,466.412 L472.064,470.84 L489.92,470.84 Z" id="cda_" fill="#FFFFFF" fill-rule="nonzero"></path>
    </g>
</svg>